# xmcd CD database file
#
# Track frame offsets:
#	150
#	14671
#	25309
#	36959
#	48272
#	62199
#	69794
#	79110
#	89258
#	98725
#	111658
#	124034
#	135869
#	148342
#	162539
#	175093
#	189555
#	199197
#	210168
#	223255
#
# Disc length: 3106 seconds
#
# Revision: 4
# Processed by: cddbd v1.5.2PL0 Copyright (c) Steve Scherf et al.
# Submitted via: CDex 1.70beta2
#
DISCID=230c2014
DTITLE=Country Hits - Country Hits CD09
DYEAR=1900
DGENRE=Country
TTITLE0=George Jones - It's Funny What A Fool Will
TTITLE1=Freddy Fender - Black Shirt
TTITLE2=Carl Perkins - Lucille
TTITLE3=Barbara Fairchild - Colour My World
TTITLE4=Danny Davis and The Nashville Brass - Blue Bayou
TTITLE5=Jim Reeves - Till The End Of The World
TTITLE6=Mickey Gilley - Keepin' On
TTITLE7=Gail Davies - I'll Be There If You Ever Want Me
TTITLE8=Don Williams - Endless Sleep
TTITLE9=George Jones - Wedding Bells
TTITLE10=Barbara Mandrell - Mama Don't Allow No Music Playing In Here
TTITLE11=Bob Wills - Fat Boy Rag
TTITLE12=Conway Twitty - I've Already Loved You In My Mind
TTITLE13=Johnny Paycheck - Someone To Give My Love To
TTITLE14=Kitty Wells - Release Me
TTITLE15=Merle Haggard - TB Blues
TTITLE16=Mickey Gilley - Slippin' And Slidin'
TTITLE17=Patsy Cline - Stop The World
TTITLE18=Porter Wagoner - Not A Cloud In The Sky
TTITLE19=Terri Gibbs - Cheatin' On My Baby
EXTD=
EXTT0=
EXTT1=
EXTT2=
EXTT3=
EXTT4=
EXTT5=
EXTT6=
EXTT7=
EXTT8=
EXTT9=
EXTT10=
EXTT11=
EXTT12=
EXTT13=
EXTT14=
EXTT15=
EXTT16=
EXTT17=
EXTT18=
EXTT19=
PLAYORDER=
